<svg width="55" height="61" viewBox="0 0 55 61" fill="none" xmlns="http://www.w3.org/2000/svg">
<g clip-path="url(#clip0_8_11631)">
<path d="M53.7291 31.8472L48.6643 23.0043C48.4862 12.3602 40.8458 2.96062 30.3612 0.548247C30.2511 0.518557 30.1361 0.501237 30.0186 0.501237H29.9963C29.8515 0.501237 29.7118 0.522268 29.5781 0.56433C29.5769 0.56433 29.5744 0.565567 29.5707 0.566804C29.3146 0.647216 29.0944 0.79567 28.9287 0.986186C28.9287 0.986186 28.9262 0.98866 28.9249 0.991134C28.8186 1.11361 28.7332 1.25464 28.6726 1.41299C28.6021 1.59856 28.5699 1.80021 28.5835 2.00557V2.02165C28.5909 2.11814 28.6082 2.21093 28.6342 2.30371L33.0557 18.6893H27.6792C27.2301 18.6893 26.807 18.9021 26.541 19.2645C26.2738 19.627 26.1946 20.0934 26.327 20.5227L28.1443 26.3953L20.1365 15.0249H25.4474C25.9386 15.0249 26.3951 14.7713 26.6524 14.3532C26.9109 13.9351 26.9344 13.4142 26.7142 12.9763C26.7142 12.9763 20.9394 1.32021 20.8713 1.28433C20.6338 0.805567 20.1414 0.5 19.6082 0.5C19.492 0.5 19.3757 0.514845 19.2569 0.543299C8.27629 3.32062 0 13.1693 0 23.4534C0 32.6575 3.55299 37.9029 6.40701 42.1177C8.54474 45.2748 10.3918 48.0002 10.3918 51.6942V59.0835C10.3918 59.8654 11.0252 60.4988 11.807 60.4988C12.5889 60.4988 13.2223 59.8654 13.2223 59.0835V51.6942C13.2223 47.1305 11.0511 43.9252 8.7501 40.5305C5.97526 36.432 2.82928 31.7891 2.82928 23.4534C2.82928 15.1177 9.61237 6.45423 18.788 3.61629C18.8128 3.65216 18.8276 3.67443 18.8276 3.67443L23.1538 12.1944H17.4049C16.8767 12.1944 16.3918 12.4901 16.1468 12.959C15.9031 13.4291 15.9427 13.9944 16.247 14.4274L30.9847 35.3557C31.2569 35.7416 31.6936 35.9557 32.1427 35.9557C32.3542 35.9557 32.5682 35.9099 32.7674 35.8109C33.3934 35.5041 33.7027 34.7878 33.4961 34.1223L29.5979 21.526H34.9014C35.3419 21.526 35.7563 21.3194 36.026 20.9705C36.2932 20.6192 36.3823 20.1664 36.2685 19.7408L32.019 3.98124C40.1505 6.88227 45.8363 14.6922 45.8363 23.3878C45.8363 23.6353 45.9006 23.8777 46.0231 24.093L51.2994 33.3021C51.3179 33.3342 51.3365 33.3652 51.3575 33.3948C51.9241 34.2262 52.1109 35.0093 51.8586 35.4893C51.647 35.8876 51.1151 36.1264 50.4371 36.1264C48.2078 36.1264 46.7678 37.9165 46.7678 40.6876V48.5124C46.7678 49.9796 45.574 51.1722 44.1068 51.1722H38.0647C36.4169 51.1722 35.0759 52.5132 35.0759 54.161V59.0847C35.0759 59.8666 35.7093 60.5 36.4924 60.5C37.2755 60.5 37.9089 59.8666 37.9089 59.0847V54.161C37.9089 54.0744 37.9781 54.0039 38.0647 54.0039H44.1068C47.1365 54.0039 49.5996 51.5396 49.5996 48.5111V40.6864C49.5996 40.1668 49.6812 38.9569 50.4371 38.9569C52.1839 38.9569 53.6524 38.154 54.3625 36.8105C55.1196 35.3779 54.8895 33.5718 53.7315 31.8472H53.7291Z" fill="white"/>
</g>
<defs>
<clipPath id="clip0_8_11631">
<rect width="54.8004" height="60" fill="white" transform="translate(0 0.5)"/>
</clipPath>
</defs>
</svg>
