<svg width="106" height="72" viewBox="0 0 106 72" fill="none" xmlns="http://www.w3.org/2000/svg">
<path d="M105.244 6.5283C105.244 3.2047 102.54 0.5 99.2162 0.5H6.78221C3.4586 0.5 0.753906 3.2047 0.753906 6.5283V65.4717C0.753906 66.3987 0.981642 67.2695 1.35808 68.0545L1.342 68.0706L1.39425 68.1228C1.98234 69.3124 2.94285 70.2716 4.13244 70.8597L4.18468 70.9119L4.20076 70.8958C4.98577 71.2723 5.85519 71.5 6.78221 71.5H99.2162C100.143 71.5 101.014 71.2723 101.799 70.8958L101.815 70.9119L101.867 70.8597C103.057 70.2729 104.016 69.3124 104.604 68.1228L104.656 68.0706L104.64 68.0545C105.017 67.2695 105.244 66.3987 105.244 65.4717V6.5283ZM62.9459 38.2439C57.4601 43.7283 48.5382 43.7256 43.0525 38.2439L9.32749 4.51887H96.6709L62.9459 38.2439ZM4.77277 6.5283C4.77277 6.26708 4.82636 6.02059 4.91745 5.79151L34.2699 35.1426L4.77277 64.6398V6.5283ZM7.61411 67.4811L37.1113 37.984L40.2112 41.0839C43.737 44.6098 48.3668 46.3714 52.9992 46.3714C57.6303 46.3714 62.2613 44.6098 65.7872 41.0839L68.8871 37.984L98.3843 67.4811H7.61411ZM71.7285 35.1426L101.081 5.79017C101.172 6.01924 101.226 6.26708 101.226 6.5283V64.6398L71.7285 35.1426Z" fill="url(#paint0_linear_1647_2189)"/>
<defs>
<linearGradient id="paint0_linear_1647_2189" x1="35.0934" y1="12.7886" x2="92.1268" y2="63.1902" gradientUnits="userSpaceOnUse">
<stop stop-color="#F15E22"/>
<stop offset="1" stop-color="#D1AB49"/>
</linearGradient>
</defs>
</svg>
