<svg width="32" height="36" viewBox="0 0 32 36" fill="none" xmlns="http://www.w3.org/2000/svg">
<circle cx="16" cy="19.5" r="16" fill="white"/>
<path d="M13.1 16.3L10.8813 14.1027C12.076 12.396 14.06 11.5 16.3 11.5C19.0733 11.5 21.42 12.8653 21.42 15.8307C21.42 17.2387 20.8866 18.22 19.8413 19.052C18.7746 19.9053 16.876 20.844 15.724 21.6333C14.6146 22.4013 14.4013 22.9133 14.4013 23.4253H21.3773V26.54H10.668V25.58C10.668 23.404 11.116 21.5693 12.46 20.3107C13.5906 19.2653 15.852 18.1987 16.8333 17.644C17.8786 17.0467 18.1773 16.62 18.1773 16.0013C18.1773 15.0413 17.4946 14.5933 16.4066 14.5933C14.9986 14.5933 13.932 15.34 13.1 16.3Z" fill="url(#paint0_linear_8_11636)"/>
<defs>
<linearGradient id="paint0_linear_8_11636" x1="16.044" y1="11.5" x2="16.044" y2="26.54" gradientUnits="userSpaceOnUse">
<stop stop-color="#107E9A"/>
<stop offset="1" stop-color="#374550"/>
</linearGradient>
</defs>
</svg>
