<svg width="32" height="37" viewBox="0 0 32 37" fill="none" xmlns="http://www.w3.org/2000/svg">
<circle cx="16" cy="20" r="16" fill="white"/>
<path d="M12.9013 16.8454L11.1093 14.5841C12.432 13.4107 14.0747 12.6641 15.8667 12.6641C18.192 12.6641 20.4533 13.9014 20.4533 16.8027C20.4533 17.8267 20.1547 18.7014 19.6427 19.3627C20.688 20.0027 21.3493 21.0694 21.3493 22.7974C21.3493 25.8481 19.3227 27.9814 15.6533 27.9814C12.8587 27.9814 11.2373 26.7441 10 25.1867L12.5387 23.0321C13.1787 24.1201 14.5653 24.8881 15.8667 24.8881C17.0613 24.8881 18.1493 24.2481 18.1493 22.8614C18.1493 21.8587 17.552 21.2401 16.08 21.2401H14.3093V18.2534H15.9947C16.848 18.2534 17.4453 17.8907 17.4453 17.0374C17.4453 16.0347 16.6133 15.7574 15.7173 15.7574C14.5013 15.7574 13.4773 16.2694 12.9013 16.8454Z" fill="url(#paint0_linear_8_11655)"/>
<defs>
<linearGradient id="paint0_linear_8_11655" x1="15.6747" y1="12.6641" x2="15.6747" y2="27.9814" gradientUnits="userSpaceOnUse">
<stop stop-color="#107E9A"/>
<stop offset="1" stop-color="#374550"/>
</linearGradient>
</defs>
</svg>
