<svg width="70" height="71" viewBox="0 0 70 71" fill="none" xmlns="http://www.w3.org/2000/svg">
<path d="M17.6307 17.0813H47.678C48.57 17.0813 49.297 16.3555 49.297 15.4623V7.11701C49.297 6.22505 48.5712 5.49805 47.678 5.49805H17.6307C16.7375 5.49805 16.0117 6.22383 16.0117 7.11701V15.4635C16.0117 16.3555 16.7387 17.0825 17.6307 17.0825V17.0813ZM19.2485 8.73475H46.059V13.8446H19.2485V8.73475Z" fill="white"/>
<path d="M19.1385 32.332C18.2466 32.332 17.5195 33.0578 17.5195 33.951V57.3215C17.5195 58.2147 18.2453 58.9404 19.1385 58.9404H46.1544C47.0463 58.9404 47.7734 58.2134 47.7734 57.3215V48.6561C47.7734 47.7629 47.0476 47.0371 46.1544 47.0371C45.2612 47.0371 44.5354 47.7641 44.5354 48.6561V55.7025H20.7575V33.951C20.7575 33.059 20.0317 32.332 19.1385 32.332Z" fill="white"/>
<path d="M51.0631 58.8709C51.0631 60.7404 49.5431 62.2616 47.6736 62.2616H17.6275C15.758 62.2616 14.2368 60.7404 14.2368 58.8709V27.9897C14.2368 26.9291 14.7439 25.915 15.5943 25.2772L18.2641 23.2745C19.5006 22.3484 20.3645 21.0117 20.7262 19.5332H17.2951C17.063 19.9804 16.7331 20.3775 16.3225 20.6866L13.6515 22.688C11.9909 23.9356 11 25.9174 11 27.9897V58.8709C11 62.5255 13.9728 65.4983 17.6275 65.4983H47.6748C51.3295 65.4983 54.3023 62.5255 54.3023 58.8709V42.509C53.2833 43.0699 52.197 43.4951 51.0643 43.7749V58.8709H51.0631Z" fill="white"/>
<path d="M55.6342 22.7555C51.3026 18.424 44.2548 18.424 39.9245 22.7555C35.5929 27.0869 35.5929 34.1346 39.9245 38.4649C44.256 42.7964 51.3039 42.7964 55.6342 38.4649C59.9646 34.1334 59.9658 27.0857 55.6342 22.7555ZM53.6132 32.4069H49.5749V36.4452H45.9838V32.4069H41.9455V28.8159H45.9838V24.7776H49.5749V28.8159H53.6132V32.4069Z" fill="white"/>
</svg>
