<svg width="70" height="70" viewBox="0 0 70 70" fill="none" xmlns="http://www.w3.org/2000/svg">
<path d="M10.7756 62.4249C10.7756 61.6127 11.4355 60.9528 12.2477 60.9528C13.0599 60.9528 13.7158 61.6141 13.7158 62.4249C13.7158 63.2357 13.0558 63.8943 12.2477 63.8943C11.4396 63.8943 10.7756 63.2343 10.7756 62.4249ZM14.1684 48.3221C6.54904 48.8016 3 52.9014 3 61.2208V64.9341C3 65.6142 3.55088 66.1651 4.23105 66.1651C4.91123 66.1651 5.46211 65.6142 5.46211 64.9341V61.2208C5.46211 55.5802 7.21979 52.4637 11.2254 51.2865C11.0867 51.9195 11.0153 52.5822 11.0153 53.3768V58.6861C9.44619 59.2032 8.31077 60.6848 8.31077 62.4249C8.31077 64.6809 10.2206 66.4991 12.5104 66.3496C14.4579 66.223 16.0392 64.6445 16.1712 62.697C16.2964 60.841 15.126 59.2329 13.4788 58.6874V53.3782C13.4788 52.3936 13.6175 51.6973 13.9057 50.8757L18.5781 54.826C19.0374 55.2126 19.7121 55.2126 20.1687 54.826L24.3373 51.304C24.5353 51.9451 24.6242 52.5445 24.6242 53.3782V55.1129C22.1756 55.5843 20.3438 57.4254 20.3438 59.6221V64.0276C20.3331 64.4613 20.3169 65.1186 20.8247 65.6371C21.156 65.9738 21.6018 66.1449 22.1554 66.1449C22.8234 66.1449 23.3353 65.6115 23.3514 64.9435C23.3649 64.5165 23.1413 64.134 22.8046 63.9037V59.6221C22.8059 58.4504 24.2027 57.4604 25.8553 57.4604C27.5079 57.4604 28.9073 58.4504 28.9073 59.6221V63.8687C28.5302 64.1044 28.2918 64.5408 28.3362 65.0243C28.3969 65.6964 29.0097 66.1718 29.6831 66.1408C30.1801 66.1179 30.5855 65.9482 30.8899 65.6371C31.3977 65.1186 31.3829 64.4627 31.3735 64.0276V59.6221C31.3721 57.4254 29.5377 55.5843 27.0863 55.1129V53.3782C27.0863 52.4946 27.0028 51.7848 26.8358 51.102C31.3802 52.096 33.2834 55.1775 33.2834 61.2208V64.9341C33.2834 65.6142 33.8342 66.1651 34.5144 66.1651C35.1946 66.1651 35.7455 65.6142 35.7455 64.9341V61.2208C35.7455 52.9014 32.1978 48.8016 24.5784 48.3208C24.2687 48.2979 23.9481 48.4043 23.7057 48.6076L19.3714 52.2697L15.0385 48.6076C14.8189 48.4218 14.5428 48.3167 14.2519 48.3167C14.2236 48.3167 14.194 48.3181 14.1643 48.3208M12.0942 37.3454C12.0942 33.3291 15.3604 30.063 19.3754 30.063C23.3905 30.063 26.658 33.3291 26.658 37.3454C26.658 41.3616 23.3918 44.6237 19.3754 44.6237C15.359 44.6237 12.0942 41.3589 12.0942 37.3454ZM9.63071 37.3454C9.63071 42.7166 14.0027 47.0871 19.3741 47.0871C24.7455 47.0871 29.1201 42.7166 29.1201 37.3454C29.1201 31.9742 24.7481 27.5996 19.3741 27.5996C14 27.5996 9.63071 31.9715 9.63071 37.3454Z" fill="white"/>
<path d="M39.8529 62.1635V64.946C39.8529 65.6262 40.4038 66.177 41.084 66.177C41.7641 66.177 42.315 65.6262 42.315 64.946V62.1635C42.315 56.9687 47.6689 54.644 52.9756 54.644C58.2823 54.644 63.6389 56.9687 63.6389 62.1635V64.946C63.6389 65.6262 64.1898 66.177 64.8699 66.177C65.5501 66.177 66.101 65.6262 66.101 64.946V62.1635C66.101 56.2858 60.7027 52.1807 52.9743 52.1807C45.2458 52.1807 39.8516 56.2858 39.8516 62.1635" fill="white"/>
<path d="M52.9753 34.3359C48.4848 34.3359 44.832 37.9886 44.832 42.4789C44.832 46.9693 48.4848 50.6219 52.9753 50.6219C57.4658 50.6219 61.1186 46.968 61.1186 42.4789C61.1186 37.9899 57.4658 34.3359 52.9753 34.3359ZM52.9753 48.1586C49.8438 48.1586 47.2968 45.6117 47.2968 42.4789C47.2968 39.3462 49.8438 36.7993 52.9753 36.7993C56.1068 36.7993 58.6551 39.3475 58.6551 42.4789C58.6551 45.6103 56.1055 48.1586 52.9753 48.1586Z" fill="white"/>
<path d="M41.3397 2.69564C42.5626 2.69564 43.5526 3.68691 43.5526 4.9085V15.0489C43.5526 16.2718 42.5613 17.2617 41.3397 17.2617H26.3192L21.7923 20.4416V17.2617H21.6671C20.4441 17.2617 19.4541 16.2704 19.4541 15.0489V4.9085C19.4541 3.68556 20.4454 2.69564 21.6671 2.69564H41.3383M41.3397 0.00195312H21.6684C18.9625 0.00195312 16.7617 2.20269 16.7617 4.9085V15.0489C16.7617 16.8132 17.6978 18.3634 19.0999 19.2281V25.6256L23.3426 22.6464L27.1718 19.9568H41.341C44.0469 19.9568 46.2477 17.756 46.2477 15.0502V4.9085C46.2477 2.20269 44.0469 0.00195312 41.341 0.00195312H41.3397Z" fill="white"/>
<path d="M50.1226 15.1019H48.2652V15.1733C48.2652 18.993 45.1579 22.1001 41.3382 22.1001H29.5273V26.6753C29.5273 27.8983 30.5186 28.8882 31.7403 28.8882H45.9822L50.1226 31.8257V28.8882C51.3455 28.8882 52.3355 27.8969 52.3355 26.6753V17.3134C52.3355 16.0905 51.3442 15.1006 50.1226 15.1006V15.1019Z" fill="white"/>
<path d="M40.1795 7.22265H23.0269C22.5811 7.22265 22.2188 6.86035 22.2188 6.41455C22.2188 5.96875 22.5811 5.60645 23.0269 5.60645H40.1795C40.6253 5.60645 40.9876 5.96875 40.9876 6.41455C40.9876 6.86035 40.6253 7.22265 40.1795 7.22265Z" fill="white"/>
<path d="M37.4857 10.7031H23.0269C22.5811 10.7031 22.2188 10.3408 22.2188 9.89502C22.2188 9.44921 22.5811 9.08691 23.0269 9.08691H37.4857C37.9315 9.08691 38.2938 9.44921 38.2938 9.89502C38.2938 10.3408 37.9315 10.7031 37.4857 10.7031Z" fill="white"/>
<path d="M34.7919 14.1836H23.0269C22.5811 14.1836 22.2188 13.8213 22.2188 13.3755C22.2188 12.9297 22.5811 12.5674 23.0269 12.5674H34.7919C35.2377 12.5674 35.6001 12.9297 35.6001 13.3755C35.6001 13.8213 35.2377 14.1836 34.7919 14.1836Z" fill="white"/>
</svg>
